<?xml version="1.0" standalone="no"?>
<!DOCTYPE svg PUBLIC "-//W3C//DTD SVG 20010904//EN"
 "http://www.w3.org/TR/2001/REC-SVG-20010904/DTD/svg10.dtd">
<svg version="1.0" xmlns="http://www.w3.org/2000/svg"
 width="123.000000pt" height="123.000000pt" viewBox="0 0 123.000000 123.000000"
 preserveAspectRatio="xMidYMid meet">
<metadata>
Created by potrace 1.14, written by Peter Selinger 2001-2017
</metadata>
<g transform="translate(0.000000,123.000000) scale(0.100000,-0.100000)"
fill="#000000" stroke="none">
<path d="M124 1205 c-1 -35 -15 -178 -18 -184 -2 -3 -7 -27 -10 -53 -6 -47 -6
-47 26 -52 85 -14 80 -16 103 52 39 117 96 159 215 158 l55 -1 2 -450 c1 -254
-2 -466 -7 -486 -13 -48 -46 -76 -100 -84 -25 -4 -48 -10 -52 -13 -6 -6 -12
-53 -9 -77 1 -6 102 -10 281 -10 l280 0 0 35 c0 47 -8 57 -53 64 -52 8 -74 21
-92 55 -12 24 -14 105 -15 499 l0 471 72 -3 c120 -5 165 -42 194 -160 13 -49
20 -64 33 -61 9 1 35 6 59 10 42 7 42 7 37 43 -3 21 -8 87 -11 147 -4 61 -9
112 -11 115 -3 3 -224 5 -492 5 -483 1 -487 1 -487 -20z"/>
</g>
</svg>
